<?xml version="1.0" encoding="UTF-8"?>
<!DOCTYPE svg PUBLIC "-//W3C//DTD SVG 1.1//EN" "http://www.w3.org/Graphics/SVG/1.1/DTD/svg11.dtd">
<svg xmlns="http://www.w3.org/2000/svg" xmlns:xlink="http://www.w3.org/1999/xlink" version="1.1" width="934px" height="211px" viewBox="-0.5 -0.5 934 211" style="background-color: rgb(255, 255, 255);"><defs/><g><rect x="0" y="73" width="220" height="60" rx="9" ry="9" fill="#000000" stroke="none" pointer-events="all" transform="translate(2,3)" opacity="0.25"/><rect x="0" y="73" width="220" height="60" rx="9" ry="9" fill="#10739e" stroke="none" pointer-events="all"/><g fill="#FFFFFF" font-family="Helvetica" font-weight="bold" text-anchor="middle" font-size="14px"><text x="109.5" y="108.5">Docker Client</text></g><rect x="731" y="72" width="200" height="60" rx="9" ry="9" fill="#000000" stroke="none" pointer-events="all" transform="translate(2,3)" opacity="0.25"/><rect x="731" y="72" width="200" height="60" rx="9" ry="9" fill="#10739e" stroke="none" pointer-events="all"/><g fill="#FFFFFF" font-family="Helvetica" font-weight="bold" text-anchor="middle" font-size="14px"><text x="830.5" y="107.5">Docker Registry</text></g><path d="M 220 103 L 220 102.5 Q 220 102 230 102 L 345.53 102" fill="none" stroke="#23445d" stroke-width="4" stroke-miterlimit="10" pointer-events="stroke"/><path d="M 355.53 102 L 345.53 107 L 345.53 97 Z" fill="#23445d" stroke="#23445d" stroke-width="4" stroke-miterlimit="10" pointer-events="all"/><path d="M 610 102 L 670 102 Q 680 102 690 102 L 716.53 102" fill="none" stroke="#23445d" stroke-width="4" stroke-miterlimit="10" stroke-dasharray="12 12" pointer-events="stroke"/><path d="M 726.53 102 L 716.53 107 L 716.53 97 Z" fill="#23445d" stroke="#23445d" stroke-width="4" stroke-miterlimit="10" pointer-events="all"/><rect x="360" y="2" width="250" height="200" rx="30" ry="30" fill="none" stroke="#10739e" stroke-width="4" pointer-events="all"/><rect x="382" y="112" width="200" height="60" rx="9" ry="9" fill="#000000" stroke="none" pointer-events="all" transform="translate(2,3)" opacity="0.25"/><rect x="382" y="112" width="200" height="60" rx="9" ry="9" fill="#10739e" stroke="none" pointer-events="all"/><g fill="#FFFFFF" font-family="Helvetica" font-weight="bold" text-anchor="middle" font-size="14px"><text x="481.5" y="147.5">Docker Engine</text></g><rect x="382" y="32" width="200" height="60" rx="9" ry="9" fill="#000000" stroke="none" pointer-events="all" transform="translate(2,3)" opacity="0.25"/><rect x="382" y="32" width="200" height="60" rx="9" ry="9" fill="#10739e" stroke="none" pointer-events="all"/><g fill="#FFFFFF" font-family="Helvetica" font-weight="bold" text-anchor="middle" font-size="14px"><text x="481.5" y="67.5">Docker Host</text></g></g></svg>